<?xml version="1.0" encoding="UTF-8"?>
<svg width="28px" height="22px" viewBox="0 0 28 22" version="1.1" xmlns="http://www.w3.org/2000/svg" xmlns:xlink="http://www.w3.org/1999/xlink">
    <!-- Generator: Sketch 60.1 (88133) - https://sketch.com -->
    <title>Combined Shape</title>
    <desc>Created with Sketch.</desc>
    <g id="PORTUGUES" stroke="none" stroke-width="1" fill="none" fill-rule="evenodd">
        <g id="ICONS" transform="translate(-122.000000, -135.000000)" fill="#00A857">
            <path d="M148.9,154.8 C149.507513,154.8 150,155.292487 150,155.9 C150,156.507513 149.507513,157 148.9,157 L123.1,157 C122.492487,157 122,156.507513 122,155.9 C122,155.292487 122.492487,154.8 123.1,154.8 L148.9,154.8 Z M148.9,144.9 C149.507513,144.9 150,145.392487 150,146 C150,146.607513 149.507513,147.1 148.9,147.1 L123.1,147.1 C122.492487,147.1 122,146.607513 122,146 C122,145.392487 122.492487,144.9 123.1,144.9 L148.9,144.9 Z M148.9,135 C149.507513,135 150,135.492487 150,136.1 C150,136.707513 149.507513,137.2 148.9,137.2 L123.1,137.2 C122.492487,137.2 122,136.707513 122,136.1 C122,135.492487 122.492487,135 123.1,135 L148.9,135 Z" id="Combined-Shape"></path>
        </g>
    </g>
</svg>