<?xml version="1.0" encoding="UTF-8"?>
<svg width="189px" height="67px" viewBox="0 0 189 67" version="1.1" xmlns="http://www.w3.org/2000/svg" xmlns:xlink="http://www.w3.org/1999/xlink">
    <title>marca_pix_mono_negativa_sem_mensagem</title>
    <g id="Pessoa-Única---Institucional" stroke="none" stroke-width="1" fill="none" fill-rule="evenodd">
        <g id="PU" transform="translate(-607.000000, -1334.000000)" fill="#FFFFFF">
            <g id="MODULO-2" transform="translate(294.000000, 1334.000000)">
                <g id="marca_pix_mono_negativa_sem_mensagem" transform="translate(313.000000, 0.000000)">
                    <path d="M89.3134465,9.90212586 L100.712626,9.91897273 C108.434202,9.93432211 114.715505,16.1987394 114.715505,23.8831612 L114.715505,33.3690756 C114.715505,41.0797037 108.413138,47.3519829 100.66636,47.3519829 L82.7741052,47.3519829 C82.11735,47.3519829 81.5850999,46.8222422 81.5850999,46.1689578 C81.5850999,45.5156734 82.11735,44.9859327 82.7741052,44.9859327 L100.66636,44.9859327 C107.101884,44.9859327 112.337871,39.7746324 112.337871,33.3690756 L112.337871,23.8831612 C112.337871,17.5008158 107.121444,12.2985004 100.708488,12.2853973 L89.3115658,12.2685504 C82.8779222,12.2685504 77.6419354,17.4798508 77.6419354,23.8850331 L77.6419354,60.4154251 C77.6419354,61.0687095 77.1096853,61.5984502 76.4529301,61.5984502 C75.796551,61.5984502 75.2643009,61.0687095 75.2643009,60.4154251 L75.2643009,23.8850331 C75.2643009,16.1747794 81.5670448,9.90212586 89.3134465,9.90212586 Z M84.0270558,55.7147722 C84.4863331,55.7147722 84.9388397,55.7941397 85.311979,56.1277079 C85.742669,56.5166835 85.8788348,57.1445105 85.8788348,57.8273705 C85.8788348,58.5577762 85.6569072,59.2249125 85.0750055,59.5903025 C84.6586091,59.8519907 84.106047,59.9474563 83.6035126,59.9474563 C83.1081251,59.9474563 82.6274073,59.8684632 82.1320198,59.7093538 L82.1320198,61.3056889 L81.6008982,61.3056889 L81.6008982,55.8255872 L82.038735,55.8255872 L82.0744691,56.0644385 C82.6488478,55.9135654 83.4455303,55.7147722 84.0270558,55.7147722 Z M88.7676551,55.7147722 C89.4206488,55.7147722 89.9807339,55.8180997 90.4042771,56.1434316 C90.877848,56.5088217 91.057647,57.1044523 91.057647,57.8273705 C91.057647,58.5656381 90.8707012,59.1612687 90.4042771,59.5187969 C89.9807339,59.8519907 89.4206488,59.9474563 88.7676551,59.9474563 C88.0999915,59.9474563 87.5323835,59.8445032 87.1231339,59.5187969 C86.6567098,59.1612687 86.4701402,58.5734999 86.4701402,57.8352324 C86.4701402,57.1044523 86.649563,56.5088217 87.1231339,56.1434316 C87.5323835,55.8180997 88.0999915,55.7147722 88.7676551,55.7147722 Z M100.458726,55.7147722 C100.93982,55.7147722 101.485235,55.7705541 101.930971,56.1037479 C102.468863,56.5088217 102.562524,57.1920561 102.562524,57.9778693 L98.8943243,57.9778693 C98.9082418,58.7644312 99.159509,59.4394294 100.49446,59.4394294 C101.154977,59.4394294 101.794053,59.3200037 102.383101,59.2088144 L102.383101,59.7014919 C101.758695,59.8205431 101.075986,59.9474563 100.423368,59.9474563 C99.7410346,59.9474563 99.2742343,59.8445032 98.9082418,59.5030731 C98.4846987,59.097625 98.3413861,58.5102306 98.3413861,57.8352324 C98.3413861,57.1995436 98.5279557,56.5166835 99.0161965,56.1194716 C99.425446,55.8098635 99.934751,55.7147722 100.458726,55.7147722 Z M108.208889,55.7147722 C108.690359,55.7147722 109.235774,55.7705541 109.681134,56.1037479 C110.219403,56.5088217 110.312687,57.1920561 110.312687,57.9778693 L106.644488,57.9778693 C106.658405,58.7644312 106.909672,59.4394294 108.244999,59.4394294 C108.905516,59.4394294 109.544216,59.3200037 110.133265,59.2088144 L110.133265,59.7014919 C109.508858,59.8205431 108.826525,59.9474563 108.173531,59.9474563 C107.491198,59.9474563 107.024774,59.8445032 106.658405,59.5030731 C106.234862,59.097625 106.091549,58.5102306 106.091549,57.8352324 C106.091549,57.1995436 106.278119,56.5166835 106.76636,56.1194716 C107.175609,55.8098635 107.68529,55.7147722 108.208889,55.7147722 Z M115.20337,54.1345352 L115.20337,59.8362669 L114.77268,59.8362669 L114.736946,59.5981644 C114.15542,59.7490375 113.358738,59.9474563 112.784359,59.9474563 C112.325082,59.9474563 111.872199,59.8759507 111.49906,59.5345206 C111.068746,59.1451706 110.932204,58.5184668 110.932204,57.8352324 C110.932204,57.1044523 111.154508,56.4451779 111.736033,56.0801623 C112.152806,55.8098635 112.704992,55.7147722 113.215049,55.7147722 C113.70329,55.7147722 114.176485,55.802376 114.672248,55.9532491 L114.672248,54.1345352 L115.20337,54.1345352 Z M91.9284307,55.8255872 L93.1196929,59.1058612 L93.1486564,59.1058612 L94.45502,55.8255872 L94.9647012,55.8255872 L96.306799,59.1058612 L96.3357624,59.1058612 L97.4988135,55.8255872 L98.0513756,55.8255872 L96.5580662,59.8362669 L96.0487611,59.8362669 L94.7062872,56.6121492 L94.6773238,56.6121492 L93.3498958,59.8362669 L92.8394623,59.8362669 L91.3469052,55.8255872 L91.9284307,55.8255872 Z M105.769566,55.7147722 L105.769566,56.2549954 L105.626254,56.2549954 L105.626254,56.2549954 C105.073692,56.2549954 104.721617,56.3339885 103.967815,56.5488798 L103.967815,59.8362669 L103.436693,59.8362669 L103.436693,55.8255872 L103.874906,55.8255872 L103.91064,56.0644385 C104.657295,55.8577835 105.037957,55.7147722 105.705245,55.7147722 L105.769566,55.7147722 L105.769566,55.7147722 Z M88.7676551,56.2235479 C87.5613469,56.2235479 87.0302253,56.6361092 87.0302253,57.8030361 C87.0302253,58.9392643 87.5542001,59.4472912 88.7676551,59.4472912 C89.9589173,59.4472912 90.4971858,59.0343556 90.4971858,57.8666799 C90.4971858,56.7315748 89.9660641,56.2235479 88.7676551,56.2235479 Z M83.9480646,56.2463848 C83.4026494,56.2463848 82.7564263,56.3897704 82.1320198,56.5488798 L82.1320198,59.1848544 C82.5698566,59.3600619 83.0652442,59.4394294 83.5391912,59.4394294 C84.7522701,59.4394294 85.319502,58.9864356 85.319502,57.8352324 C85.319502,56.7315748 84.8451788,56.2463848 83.9480646,56.2463848 Z M113.265829,56.2235479 C112.052374,56.2235479 111.492289,56.6757929 111.492289,57.8352324 C111.492289,58.9392643 111.966236,59.4154694 112.86335,59.4154694 C113.408766,59.4154694 114.047842,59.2728325 114.672248,59.121585 L114.672248,56.4769998 C114.241558,56.302541 113.746171,56.2235479 113.265829,56.2235479 Z M100.458726,56.1913516 C99.3532255,56.1913516 98.9733155,56.7151023 98.901095,57.5016642 L102.016733,57.5016642 C101.980999,56.6361092 101.571749,56.1913516 100.458726,56.1913516 Z M108.208889,56.1913516 C107.103765,56.1913516 106.723479,56.7151023 106.651634,57.5016642 L109.767272,57.5016642 C109.731162,56.6361092 109.321912,56.1913516 108.208889,56.1913516 Z M126.933184,47.523821 C126.276429,47.523821 125.744179,46.9940804 125.744179,46.3407959 L125.744179,16.3327657 C125.744179,14.0891362 123.909703,12.2633092 121.655445,12.2633092 L116.711725,12.2633092 C116.055346,12.2633092 115.523096,11.7335685 115.523096,11.0802841 C115.523096,10.4269996 116.055346,9.89725898 116.711725,9.89725898 L121.655445,9.89725898 C125.221332,9.89725898 128.122189,12.7840648 128.122189,16.3327657 L128.122189,46.3407959 C128.122189,46.9940804 127.589563,47.523821 126.933184,47.523821 M125.873198,6.88279127 L123.630977,4.65114174 C123.075029,4.09744107 123.075029,3.19968976 123.630977,2.64598909 L125.871693,0.415837061 C126.429145,-0.138612354 127.332278,-0.138612354 127.889353,0.415837061 L130.13007,2.64598909 C130.686394,3.19968976 130.686394,4.09744107 130.13007,4.65114174 L127.888225,6.88279127 C127.331525,7.43649193 126.429521,7.43649193 125.873198,6.88279127 M141.261808,47.3523573 L136.358713,47.3523573 C135.702333,47.3523573 135.170083,46.8226166 135.170083,46.1693322 C135.170083,45.5160478 135.702333,44.9859327 136.358713,44.9859327 L141.261808,44.9859327 C143.484469,44.9859327 145.57435,44.1244958 147.145899,42.5603569 L158.614289,31.3586818 C159.556918,30.4197492 160.81062,29.9027373 162.144443,29.9027373 C163.477889,29.9027373 164.731968,30.4197492 165.674596,31.3586818 L177.100859,42.5184269 C178.672031,44.0829402 180.761912,44.9443771 182.984573,44.9443771 L186.971371,44.9443771 C187.62775,44.9443771 188.16,45.4741178 188.16,46.1274022 C188.16,46.781061 187.62775,47.3108016 186.971371,47.3108016 L182.984573,47.3108016 C180.126973,47.3108016 177.440521,46.2030259 175.419475,44.1915089 L163.993589,33.0317637 C163.49933,32.5402093 162.842575,32.2691618 162.144443,32.2691618 C161.445559,32.2691618 160.78918,32.5402093 160.295673,33.0317637 L148.826906,44.2330645 C146.806237,46.2445816 144.119784,47.3523573 141.261808,47.3523573 M141.261808,9.89725898 L136.358713,9.89725898 C135.702333,9.89725898 135.170083,10.4269996 135.170083,11.0802841 C135.170083,11.7335685 135.702333,12.2633092 136.358713,12.2633092 L141.261808,12.2633092 C143.484469,12.2633092 145.57435,13.1247461 147.145899,14.6888849 L158.614289,25.8909345 C159.556918,26.8294927 160.81062,27.3465046 162.144443,27.3465046 C163.477889,27.3465046 164.731968,26.8294927 165.674596,25.8909345 L177.100859,14.730815 C178.672031,13.1663017 180.761912,12.3052392 182.984573,12.3052392 L186.971371,12.3052392 C187.62775,12.3052392 188.16,11.7751241 188.16,11.1218397 C188.16,10.4685553 187.62775,9.93881461 186.971371,9.93881461 L182.984573,9.93881461 C180.126973,9.93881461 177.440521,11.0465903 175.419475,13.057733 L163.993589,24.2178525 C163.49933,24.7090325 162.842575,24.9804544 162.144443,24.9804544 C161.445559,24.9804544 160.78918,24.7090325 160.295673,24.2178525 L148.826906,13.0161773 C146.806237,11.0050347 144.119784,9.89725898 141.261808,9.89725898 M32.2013188,39.3620711 L41.6430217,48.7592586 C43.3834607,50.4903687 45.6975261,51.4439019 48.1586656,51.4439019 L50.0123253,51.4439019 L38.0978223,63.3022309 C34.3765854,67.005923 28.3439161,67.005923 24.6223031,63.3022309 L12.6735706,51.4098338 L13.806906,51.4098338 C16.2676693,51.4098338 18.5821109,50.4559262 20.3221737,48.7248161 L29.7296471,39.3620711 C30.3897877,38.7027967 31.5411782,38.7046685 32.2013188,39.3620711 Z M52.778145,21.043901 L59.9294798,28.161519 C63.6507167,31.8652112 63.6507167,37.8698122 59.9294798,41.5735044 L52.778145,48.690748 L48.1586656,48.6911224 C46.4611075,48.6911224 44.7996597,48.0060161 43.6004983,46.8113854 L34.1587954,37.4141978 C32.4518336,35.7171558 29.4772515,35.7164071 27.7721705,37.4149466 L18.3650732,46.7769428 C17.1655357,47.9715736 15.504464,48.6566799 13.806906,48.6566799 L9.90737472,48.6566799 L2.79064555,41.5735044 C-0.930215182,37.8698122 -0.930215182,31.8652112 2.79064555,28.161519 L9.90775087,21.0779692 L13.806906,21.0779692 C15.504464,21.0779692 17.1655357,21.7630755 18.3650732,22.9577062 L27.7721705,32.3208256 C28.652734,33.1968631 29.8093906,33.6352563 30.9649187,33.6352563 C32.1215753,33.6352563 33.2774795,33.1968631 34.157667,32.3219487 L43.6004983,22.923638 C44.7996597,21.7290073 46.4611075,21.043901 48.1586656,21.043901 L52.778145,21.043901 Z M38.0978223,6.43279249 L50.0119491,18.2911215 L48.1586656,18.2911215 C45.6975261,18.2911215 43.3834607,19.2446546 41.6430217,20.9757648 L32.2013188,30.3748242 C31.5216185,31.0513199 30.4112282,31.0543149 29.7296471,30.3737011 L20.3221737,21.0098329 C18.5821109,19.2787228 16.2676693,18.3251896 13.806906,18.3251896 L12.6739468,18.3251896 L24.6223031,6.43279249 C28.3439161,2.72947472 34.3765854,2.72947472 38.0978223,6.43279249 Z M121.271021,56.2463848 C120.725606,56.2463848 120.086153,56.3897704 119.4546,56.5488798 L119.4546,59.1769925 C119.899584,59.3600619 120.387448,59.4394294 120.861772,59.4394294 C122.07485,59.4394294 122.64133,58.9864356 122.64133,57.8352324 C122.64133,56.7315748 122.168135,56.2463848 121.271021,56.2463848 Z M122.397962,59.5903025 C121.981566,59.8519907 121.428627,59.9474563 120.926093,59.9474563 C120.387448,59.9474563 119.849932,59.8445032 119.311287,59.64571 L119.289095,59.8362669 L118.923102,59.8362669 L118.923102,54.1345352 L119.4546,54.1345352 L119.4546,56.047966 C120.028979,55.8974672 120.796698,55.7147722 121.349636,55.7147722 C121.808913,55.7147722 122.26142,55.7941397 122.634559,56.1277079 C123.065625,56.5166835 123.202167,57.1445105 123.202167,57.8273705 C123.202167,58.5577762 122.979111,59.2170506 122.397962,59.5903025 L122.397962,59.5903025 Z M123.566279,61.3768201 L123.566279,60.8609313 C123.767895,60.8848914 123.968758,60.9006151 124.11207,60.9006151 C124.622128,60.9006151 124.923423,60.7415057 125.195754,60.1301513 L125.318379,59.8362669 L123.401526,55.8255872 L124.018786,55.8255872 L125.584316,59.1848544 L125.612527,59.1848544 L127.091166,55.8255872 L127.673068,55.8255872 L125.663307,60.2892607 C125.289415,61.1229939 124.880542,61.4165039 124.119593,61.4165039 C123.939794,61.4165039 123.753225,61.4007801 123.566279,61.3768201 M133.439048,57.5492099 L132.031877,57.5492099 L132.031877,58.9549881 L133.446195,58.9549881 C134.415153,58.9549881 134.781522,58.8355625 134.781522,58.248168 C134.781522,57.6203411 134.278988,57.5492099 133.439048,57.5492099 Z M133.180634,55.2703891 L132.031877,55.2703891 L132.031877,56.6993786 L133.187781,56.6993786 C134.142822,56.6993786 134.523108,56.5724654 134.523108,55.9772091 C134.523108,55.341146 134.042014,55.2703891 133.180634,55.2703891 Z M135.363048,59.4551531 C134.845843,59.8205431 134.221437,59.8362669 133.079826,59.8362669 L130.933523,59.8362669 L130.933523,54.3962234 L133.029799,54.3962234 C134.013051,54.3962234 134.616017,54.4119471 135.118551,54.7455153 C135.477773,54.9843666 135.621085,55.3493822 135.621085,55.8255872 C135.621085,56.3980067 135.405928,56.7787461 134.845843,57.0333211 L134.845843,57.0647686 C135.477773,57.2235036 135.886646,57.5810317 135.886646,58.3511212 C135.886646,58.8752462 135.71437,59.2170506 135.363048,59.4551531 L135.363048,59.4551531 Z M139.894508,58.1527024 C139.471341,58.113393 139.040651,58.0890587 138.588145,58.0890587 C137.848637,58.0890587 137.590599,58.2560299 137.590599,58.6296562 C137.590599,58.9785737 137.805756,59.1691306 138.372988,59.1691306 C138.846182,59.1691306 139.413791,59.0504537 139.894508,58.9310281 L139.894508,58.1527024 Z M140.110041,59.8362669 L140.081454,59.5981644 C139.463818,59.7647613 138.746127,59.9474563 138.113821,59.9474563 C137.726388,59.9474563 137.309992,59.8916744 137.015844,59.6535719 C136.743512,59.4394294 136.614117,59.0901375 136.614117,58.6846893 C136.614117,58.2324443 136.793164,57.8116468 137.22423,57.5967555 C137.604516,57.3979624 138.113821,57.3822386 138.580998,57.3822386 C138.961284,57.3822386 139.471341,57.4061986 139.894508,57.4383949 L139.894508,57.3665149 C139.894508,56.7390623 139.520993,56.5324073 138.502007,56.5324073 C138.107051,56.5324073 137.626333,56.5559929 137.167056,56.6039129 L137.167056,55.7941397 C137.676361,55.7462197 138.250739,55.7147722 138.72431,55.7147722 C139.35624,55.7147722 140.00961,55.7705541 140.411336,56.0880241 C140.827356,56.4137304 140.906724,56.8663498 140.906724,57.4616061 L140.906724,59.8362669 L140.110041,59.8362669 L140.110041,59.8362669 Z M145.340762,59.8362669 L145.340762,57.6203411 C145.340762,56.8899354 145.003357,56.6278729 144.400015,56.6278729 C143.954655,56.6278729 143.394946,56.7547861 142.921375,56.8824479 L142.921375,59.8362669 L141.908783,59.8362669 L141.908783,55.8255872 L142.734429,55.8255872 L142.77054,56.0801623 C143.40924,55.8974672 144.119784,55.7147722 144.708833,55.7147722 C145.153816,55.7147722 145.605947,55.7862779 145.950499,56.1277079 C146.237876,56.4137304 146.345455,56.8105679 146.345455,57.3822386 L146.345455,59.8362669 L145.340762,59.8362669 M148.998806,59.9474563 C148.532006,59.9474563 148.021948,59.8759507 147.648809,59.5266588 C147.203825,59.1294469 147.074807,58.5019943 147.074807,57.8273705 C147.074807,57.1920561 147.261376,56.5009598 147.813562,56.1119841 C148.266069,55.7862779 148.82653,55.7147722 149.408056,55.7147722 C149.824452,55.7147722 150.232949,55.7462197 150.685456,55.7941397 L150.685456,56.6518329 C150.319087,56.6121492 149.88125,56.5803273 149.529928,56.5803273 C148.567364,56.5803273 148.115609,56.9138954 148.115609,57.8352324 C148.115609,58.7004131 148.453015,59.0744137 149.242926,59.0744137 C149.702204,59.0744137 150.240472,58.9785737 150.764447,58.8673843 L150.764447,59.6928813 C150.196839,59.8205431 149.580332,59.9474563 148.998806,59.9474563 M153.666056,56.5559929 C152.703868,56.5559929 152.280325,56.8899354 152.280325,57.8030361 C152.280325,58.7168856 152.697098,59.1058612 153.666056,59.1058612 C154.620721,59.1058612 155.037117,58.780155 155.037117,57.8666799 C155.037117,56.9535792 154.627868,56.5559929 153.666056,56.5559929 Z M155.402734,59.5266588 C154.958126,59.8602269 154.376977,59.9474563 153.666056,59.9474563 C152.940466,59.9474563 152.359693,59.8519907 151.92148,59.5266588 C151.418945,59.1612687 151.239899,58.5577762 151.239899,57.8352324 C151.239899,57.1123142 151.418945,56.5009598 151.92148,56.1351954 C152.359693,55.8098635 152.940466,55.7147722 153.666056,55.7147722 C154.383748,55.7147722 154.958126,55.8098635 155.402734,56.1351954 C155.905268,56.5009598 156.078296,57.1123142 156.078296,57.8273705 C156.078296,58.5499143 155.898121,59.1612687 155.402734,59.5266588 L155.402734,59.5266588 Z M161.657707,59.9474563 C161.047594,59.9474563 160.387453,59.8362669 159.892066,59.3832731 C159.303393,58.8437987 159.123595,58.0100655 159.123595,57.1123142 C159.123595,56.3104029 159.353421,55.3576185 160.121516,54.8016715 C160.716959,54.3726378 161.456844,54.2854084 162.203122,54.2854084 C162.748914,54.2854084 163.308622,54.3247178 163.919111,54.3804996 L163.919111,55.3576185 C163.395137,55.3096985 162.748914,55.2703891 162.246379,55.2703891 C160.847107,55.2703891 160.250535,55.8577835 160.250535,57.1123142 C160.250535,58.3908049 160.803474,58.96285 161.83713,58.96285 C162.511564,58.96285 163.265365,58.8119768 164.027066,58.6371437 L164.027066,59.6060263 C163.265365,59.7729975 162.468683,59.9474563 161.657707,59.9474563 M166.8384,56.4294542 C165.998836,56.4294542 165.675725,56.7630223 165.611403,57.3743767 L168.051479,57.3743767 C168.022891,56.7233386 167.678339,56.4294542 166.8384,56.4294542 Z M166.687564,59.9474563 C166.091745,59.9474563 165.5531,59.8684632 165.15175,59.5030731 C164.720684,59.1058612 164.570224,58.5102306 164.570224,57.8273705 C164.570224,57.2160161 164.749647,56.5324073 165.252182,56.1351954 C165.697165,55.7862779 166.264021,55.7147722 166.8384,55.7147722 C167.354852,55.7147722 167.965341,55.778416 168.4107,56.1194716 C168.992226,56.5724654 169.04263,57.2714236 169.049401,58.0976693 L165.603504,58.0976693 C165.625321,58.7086493 165.919469,59.1058612 166.938831,59.1058612 C167.571137,59.1058612 168.274159,59.0029081 168.870354,58.8988318 L168.870354,59.6857681 C168.173727,59.8126813 167.413155,59.9474563 166.687564,59.9474563 L166.687564,59.9474563 Z M173.297245,59.8362669 L173.297245,57.6203411 C173.297245,56.8899354 172.95984,56.6278729 172.356498,56.6278729 C171.911514,56.6278729 171.351429,56.7547861 170.878234,56.8824479 L170.878234,59.8362669 L169.866019,59.8362669 L169.866019,55.8255872 L170.691289,55.8255872 L170.727023,56.0801623 C171.366099,55.8974672 172.076267,55.7147722 172.665692,55.7147722 C173.110299,55.7147722 173.56243,55.7862779 173.906982,56.1277079 C174.194359,56.4137304 174.302314,56.8105679 174.302314,57.3822386 L174.302314,59.8362669 L173.297245,59.8362669 M176.98839,59.9474563 C176.500902,59.9474563 176.055166,59.7969575 175.811422,59.37616 C175.631999,59.0901375 175.545861,58.7004131 175.545861,58.1609387 L175.545861,56.6600692 L174.8135,56.6600692 L174.8135,55.8255872 L175.545861,55.8255872 L175.653439,54.6107403 L176.55093,54.6107403 L176.55093,55.8255872 L177.979541,55.8255872 L177.979541,56.6600692 L176.55093,56.6600692 L176.55093,57.9464218 C176.55093,58.2560299 176.571994,58.5184668 176.650985,58.7086493 C176.75894,58.9785737 176.995537,59.0819012 177.311502,59.0819012 C177.548851,59.0819012 177.836229,59.0422175 178.036716,59.0029081 L178.036716,59.804445 C177.706082,59.8759507 177.325795,59.9474563 176.98839,59.9474563 M178.741618,59.8362669 L178.741618,55.8255872 L179.567264,55.8255872 L179.603374,56.0801623 C180.271038,55.8735072 180.766426,55.7147722 181.397979,55.7147722 C181.426942,55.7147722 181.470199,55.7147722 181.526998,55.7226341 L181.526998,56.6757929 C181.412272,56.6675567 181.275731,56.6675567 181.175675,56.6675567 C180.680288,56.6675567 180.306772,56.7315748 179.75421,56.8742117 L179.75421,59.8362669 L178.741618,59.8362669 M185.052637,58.1527024 C184.629094,58.113393 184.19878,58.0890587 183.74665,58.0890587 C183.006766,58.0890587 182.748352,58.2560299 182.748352,58.6296562 C182.748352,58.9785737 182.963885,59.1691306 183.531117,59.1691306 C184.004688,59.1691306 184.572296,59.0504537 185.052637,58.9310281 L185.052637,58.1527024 Z M185.268171,59.8362669 L185.239583,59.5981644 C184.622324,59.7647613 183.904632,59.9474563 183.272327,59.9474563 C182.884894,59.9474563 182.468497,59.8916744 182.173973,59.6535719 C181.901642,59.4394294 181.772623,59.0901375 181.772623,58.6846893 C181.772623,58.2324443 181.951669,57.8116468 182.382359,57.5967555 C182.762646,57.3979624 183.272327,57.3822386 183.739127,57.3822386 C184.119789,57.3822386 184.629094,57.4061986 185.052637,57.4383949 L185.052637,57.3665149 C185.052637,56.7390623 184.679498,56.5324073 183.660136,56.5324073 C183.26518,56.5324073 182.784462,56.5559929 182.324809,56.6039129 L182.324809,55.7941397 C182.834866,55.7462197 183.408869,55.7147722 183.882816,55.7147722 C184.514369,55.7147722 185.167739,55.7705541 185.569465,56.0880241 C185.985862,56.4137304 186.064853,56.8663498 186.064853,57.4616061 L186.064853,59.8362669 L185.268171,59.8362669 L185.268171,59.8362669 Z M187.071426,59.8362669 L188.083642,59.8362669 L188.083642,54.1345352 L187.071426,54.1345352 L187.071426,59.8362669 Z" id="Combined-Shape"></path>
                </g>
            </g>
        </g>
    </g>
</svg>